<svg xmlns="http://www.w3.org/2000/svg" width="358.856" height="60.018" viewBox="0 0 358.856 60.018"><g id="TicketWings_Light" data-name="TicketWings Light" transform="translate(557.455 5762.95)"><path id="Path_60769" data-name="Path 60769" d="M17.125-144.391q0,2.013,5.724,3.46a28.241,28.241,0,0,1,3.649,1.038,15.955,15.955,0,0,1,3.3,1.7,7.652,7.652,0,0,1,2.611,2.925,9.047,9.047,0,0,1,.944,4.215,8.7,8.7,0,0,1-3.649,7.486,15.19,15.19,0,0,1-9,2.579q-9.687,0-13.21-7.486l7.045-3.963q1.447,4.089,6.165,4.089,4.34,0,4.34-2.7,0-2.013-5.724-3.46-2.139-.566-3.649-1.132a18.579,18.579,0,0,1-3.271-1.667,7.353,7.353,0,0,1-2.673-2.831,8.58,8.58,0,0,1-.912-4.057,8.731,8.731,0,0,1,3.4-7.3,13.466,13.466,0,0,1,8.555-2.7,14.245,14.245,0,0,1,6.983,1.73,12.643,12.643,0,0,1,4.97,4.938l-6.92,3.774a5.176,5.176,0,0,0-5.032-3.208,4.459,4.459,0,0,0-2.611.723A2.181,2.181,0,0,0,17.125-144.391Z" transform="translate(-261.874 -5595.406)" fill="#fff"></path><path id="Path_59779" data-name="Path 59779" d="M16.675,96.613V94.857a2.318,2.318,0,1,1,0-4.635V88.466H0l8.148,8.147Z" transform="translate(-529.43 -5837.898)" fill="#fff" fill-rule="evenodd"></path><path id="Path_59780" data-name="Path 59780" d="M132.391,13.83h8.148V45.414h-8.148Zm4.043-3.79a4.8,4.8,0,0,1-3.507-1.482,4.8,4.8,0,0,1-1.485-3.508,4.9,4.9,0,0,1,1.485-3.537A4.741,4.741,0,0,1,136.434,0,4.808,4.808,0,0,1,140,1.513a4.9,4.9,0,0,1,1.484,3.537A4.8,4.8,0,0,1,140,8.558a4.868,4.868,0,0,1-3.568,1.482" transform="translate(-642.255 -5762.948)" fill="#fff" fill-rule="evenodd"></path><path id="Path_59781" data-name="Path 59781" d="M245.685,118.083a16.817,16.817,0,0,1-11.906-28.55,16.11,16.11,0,0,1,11.906-4.8,16.371,16.371,0,0,1,8.4,2.212,14.7,14.7,0,0,1,5.749,5.937l-7.012,4.1a7.157,7.157,0,0,0-2.875-3.1,8.368,8.368,0,0,0-4.326-1.136,8.163,8.163,0,0,0-6.064,2.432,8.488,8.488,0,0,0-2.4,6.223,8.4,8.4,0,0,0,2.4,6.159,8.16,8.16,0,0,0,6.064,2.43,8.65,8.65,0,0,0,4.39-1.1,6.992,6.992,0,0,0,2.875-3.063l7.074,4.043a15.816,15.816,0,0,1-5.875,5.969,16.2,16.2,0,0,1-8.4,2.241" transform="translate(-728.059 -5834.733)" fill="#fff" fill-rule="evenodd"></path><path id="Path_59782" data-name="Path 59782" d="M488.8,52.07h-9.475l-11.5-14.349V52.07h-8.148V7.855h8.148V34.437l10.864-13.951h9.728l-12.7,15.6Z" transform="translate(-924.742 -5769.605)" fill="#fff" fill-rule="evenodd"></path><path id="Path_59783" data-name="Path 59783" d="M659.476,98.443h16.107a7.64,7.64,0,0,0-2.874-4.8,8.241,8.241,0,0,0-4.959-1.577,8.57,8.57,0,0,0-5.432,1.674,8,8,0,0,0-2.842,4.7m.126,6.318q1.644,5.934,8.907,5.934a8.335,8.335,0,0,0,7.074-3.156l6.57,3.79q-4.676,6.757-13.771,6.757-7.832,0-12.57-4.737a17.454,17.454,0,0,1-.063-23.842,16.088,16.088,0,0,1,12-4.77,15.054,15.054,0,0,1,11.464,4.8,16.685,16.685,0,0,1,4.518,11.876,19.124,19.124,0,0,1-.317,3.348Z" transform="translate(-1090.245 -5834.739)" fill="#fff" fill-rule="evenodd"></path><path id="Path_59784" data-name="Path 59784" d="M898.814,49.334h-7.138v13.14a3.123,3.123,0,0,0,.821,2.4,3.772,3.772,0,0,0,2.4.852,35.177,35.177,0,0,0,3.917-.032v7.391q-8.4.946-11.844-1.581t-3.443-9.03V49.334h-5.494V41.5h5.494V35.122l8.148-2.462V41.5h7.138Z" transform="translate(-1284.411 -5790.619)" fill="#fff" fill-rule="evenodd"></path><path id="Path_59785" data-name="Path 59785" d="M8.148,141.78,0,149.93v4.99q0,6.5,3.441,9.03t11.844,1.581V158.14a35.149,35.149,0,0,1-3.915.032,3.767,3.767,0,0,1-2.4-.852,3.124,3.124,0,0,1-.82-2.4Z" transform="translate(-529.43 -5883.065)" fill="#fff" fill-rule="evenodd"></path><path id="Path_59786" data-name="Path 59786" d="M8.148,32.66H6.391a2.318,2.318,0,1,1-4.636,0H0v8.527l8.148,8.147Z" transform="translate(-529.43 -5790.619)" fill="#fff" fill-rule="evenodd"></path><path id="Path_59787" data-name="Path 59787" d="M53.325,96.613l1.731-8.147H53.325Z" transform="translate(-574.606 -5837.898)" fill="#cecece" fill-rule="evenodd"></path><path id="Subtraction_28" data-name="Subtraction 28" d="M156.916,49.26H127.7a11.7,11.7,0,0,0,3.473-4.279,12.987,12.987,0,0,0,1.186-5.59,12.3,12.3,0,0,0-1.307-5.708,10.9,10.9,0,0,0-3.706-4.144,21.027,21.027,0,0,0-2.044-1.194l7.639-4.166L131.309,21.3a16.083,16.083,0,0,0-4.211-4.865h29.817v7.072h0a9.338,9.338,0,0,0,0,18.675V49.26Z" transform="translate(-357.633 -5765.853)" fill="#ffb606" stroke="rgba(0,0,0,0)" stroke-miterlimit="10" stroke-width="1"></path><path id="Subtraction_10" data-name="Subtraction 10" d="M-9460.342,4373.937H-9489v-7.072h0a9.289,9.289,0,0,0,3.637-.733,9.309,9.309,0,0,0,2.969-2,9.382,9.382,0,0,0,2.006-2.967,9.348,9.348,0,0,0,.73-3.633,9.371,9.371,0,0,0-.73-3.637,9.377,9.377,0,0,0-2.006-2.971,9.285,9.285,0,0,0-2.969-2,9.308,9.308,0,0,0-3.637-.734v-7.073h24.406v1.7l7.193,7.19-7.193,7.194v5.945C-9464.594,4368.161-9463.164,4371.79-9460.342,4373.937Z" transform="translate(8932.045 -10090.74)" fill="#bc1eb5" stroke="rgba(0,0,0,0)" stroke-miterlimit="10" stroke-width="1"></path><path id="Path_60766" data-name="Path 60766" d="M18.169-205.7a4.775,4.775,0,0,1-3.491-1.478,4.774,4.774,0,0,1-1.478-3.491,4.878,4.878,0,0,1,1.478-3.523,4.726,4.726,0,0,1,3.491-1.51,4.8,4.8,0,0,1,3.554,1.51,4.878,4.878,0,0,1,1.478,3.523,4.774,4.774,0,0,1-1.478,3.491A4.846,4.846,0,0,1,18.169-205.7Zm4.089,35.227H14.143v-31.453h8.115Z" transform="translate(-347.81 -5546.805)" fill="#fff"></path><path id="Path_60770" data-name="Path 60770" d="M36.388-130.625,41.735-150h8.618l-10,31.453H32.614l-5.787-19.06-5.787,19.06H13.3L3.3-150h8.618l5.347,19.312L22.99-150h7.675Z" transform="translate(-386.931 -5598.729)" fill="#fff"></path><path id="Path_60768" data-name="Path 60768" d="M35.628-149.419v-3.9h7.926v29.943q0,7.234-4.844,11.134A17.909,17.909,0,0,1,27.136-108.4q-10.694,0-14.909-7.674l6.92-3.963q2.328,4.4,8.241,4.4a8.612,8.612,0,0,0,6.039-2.013,7.365,7.365,0,0,0,2.2-5.724v-3.4a11.854,11.854,0,0,1-10.065,4.781,15,15,0,0,1-11.2-4.655A16.185,16.185,0,0,1,9.9-138.1a15.847,15.847,0,0,1,4.529-11.386A14.831,14.831,0,0,1,25.564-154.2,11.854,11.854,0,0,1,35.628-149.419Zm-2.516,17.551a8.327,8.327,0,0,0,2.516-6.228,7.923,7.923,0,0,0-2.516-6.1,8.517,8.517,0,0,0-6.291-2.453,8.867,8.867,0,0,0-6.353,2.453,8.024,8.024,0,0,0-2.453,6.1,8.278,8.278,0,0,0,2.485,6.2,8.684,8.684,0,0,0,6.322,2.422A8.638,8.638,0,0,0,33.112-131.868Z" transform="translate(-299.895 -5594.528)" fill="#fff"></path><path id="Path_60767" data-name="Path 60767" d="M35.188-154.2a11.157,11.157,0,0,1,8.492,3.46q3.4,3.523,3.4,9.562v19.312H38.962v-18.306a6.536,6.536,0,0,0-1.667-4.781,6.1,6.1,0,0,0-4.561-1.7,6.6,6.6,0,0,0-5.064,1.982,8.218,8.218,0,0,0-1.856,5.819v16.985H17.7v-31.453h8.115v3.523Q28.709-154.2,35.188-154.2Z" transform="translate(-339.69 -5595.409)" fill="#fff"></path></g></svg>